HIERARCHY
ROOT hips
{
  OFFSET 0 10.6860622 2.3727825e-15
  CHANNELS 6 Xposition Yposition Zposition Yrotation Xrotation Zrotation
  JOINT leftUpperLeg
  {
    OFFSET 0.6642549969 -0.9402397400000004 0
    CHANNELS 3 Yrotation Xrotation Zrotation
    JOINT leftLowerLeg
    {
      OFFSET 0 -3.997221335632195 0
      CHANNELS 3 Yrotation Xrotation Zrotation
      JOINT leftFoot
      {
        OFFSET -0.13777839790000004 -4.6145792000000005 -0.22186036399999998
        CHANNELS 3 Yrotation Xrotation Zrotation
        JOINT leftToes
        {
          OFFSET -0.03777410834999995 -0.9130806927000008 0.85230013
          CHANNELS 3 Yrotation Xrotation Zrotation
          End Site
          {
            OFFSET -0.03777410834999995 -0.9130806927000008 0.85230013
          }
        }
      }
    }
  }
  JOINT rightUpperLeg
  {
    OFFSET -0.6642778626 -0.9402397400000004 0
    CHANNELS 3 Yrotation Xrotation Zrotation
    JOINT rightLowerLeg
    {
      OFFSET 0 -3.997221452859387 0
      CHANNELS 3 Yrotation Xrotation Zrotation
      JOINT rightFoot
      {
        OFFSET 0.1377926176 -4.6145792000000005 -0.22185782299999995
        CHANNELS 3 Yrotation Xrotation Zrotation
        JOINT rightToes
        {
          OFFSET 0.037780746850000047 -0.9130806927000008 0.85230167
          CHANNELS 3 Yrotation Xrotation Zrotation
          End Site
          {
            OFFSET 0.037780746850000047 -0.9130806927000008 0.85230167
          }
        }
      }
    }
  }
  JOINT spine
  {
    OFFSET 0 0.13988381660000015 0
    CHANNELS 3 Yrotation Xrotation Zrotation
    JOINT chest
    {
      OFFSET 0 0.6191039003973773 0
      CHANNELS 3 Yrotation Xrotation Zrotation
      JOINT upperChest
      {
        OFFSET 0 0.9855186130586943 0
        CHANNELS 3 Yrotation Xrotation Zrotation
        JOINT leftShoulder
        {
          OFFSET 0.1807663869 1.5087829790000005 0
          CHANNELS 3 Yrotation Xrotation Zrotation
          JOINT leftUpperArm
          {
            OFFSET 0.5985063006419806 0 0
            CHANNELS 3 Yrotation Xrotation Zrotation
            JOINT leftLowerArm
            {
              OFFSET 2.2993332369501065 0 0
              CHANNELS 3 Yrotation Xrotation Zrotation
              JOINT leftHand
              {
                OFFSET 2.395047042602395 0 0
                CHANNELS 3 Yrotation Xrotation Zrotation
                JOINT leftIndexProximal
                {
                  OFFSET 0.5766295810000004 0.04556643899499946 0.17265095988184
                  CHANNELS 3 Yrotation Xrotation Zrotation
                  JOINT leftIndexIntermediate
                  {
                    OFFSET 0.2957229000000008 -0.019352197700001517 -0.007932640616999987
                    CHANNELS 3 Yrotation Xrotation Zrotation
                    JOINT leftIndexDistal
                    {
                      OFFSET 0.19008243099999922 -0.012484908149998475 -0.002786250786000012
                      CHANNELS 3 Yrotation Xrotation Zrotation
                      End Site
                      {
                        OFFSET 0.19008243099999922 -0.012484908149998475 -0.002786250786000012
                      }
                    }
                  }
                }
                JOINT leftMiddleProximal
                {
                  OFFSET 0.5834975091000001 0.0524350405149987 0.02204081888183999
                  CHANNELS 3 Yrotation Xrotation Zrotation
                  JOINT leftMiddleIntermediate
                  {
                    OFFSET 0.33880573540000003 -0.019871473270000717 -0.00000971183179999946
                    CHANNELS 3 Yrotation Xrotation Zrotation
                    JOINT leftMiddleDistal
                    {
                      OFFSET 0.20676022730000088 -0.012221336379999448 0.0001471936708000235
                      CHANNELS 3 Yrotation Xrotation Zrotation
                      End Site
                      {
                        OFFSET 0.20676022730000088 -0.012221336379999448 0.0001471936708000235
                      }
                    }
                  }
                }
                JOINT leftLittleProximal
                {
                  OFFSET 0.5344154683999995 -0.012880921405001189 -0.24414037221816004
                  CHANNELS 3 Yrotation Xrotation Zrotation
                  JOINT leftLittleIntermediate
                  {
                    OFFSET 0.21758961730000093 -0.011650919939999227 0.011893592810000034
                    CHANNELS 3 Yrotation Xrotation Zrotation
                    JOINT leftLittleDistal
                    {
                      OFFSET 0.1475273964999999 -0.008152365682999818 0.006001092492999946
                      CHANNELS 3 Yrotation Xrotation Zrotation
                      End Site
                      {
                        OFFSET 0.1475273964999999 -0.008152365682999818 0.006001092492999946
                      }
                    }
                  }
                }
                JOINT leftRingProximal
                {
                  OFFSET 0.5799399463000003 0.026911854694997794 -0.12150566991816003
                  CHANNELS 3 Yrotation Xrotation Zrotation
                  JOINT leftRingIntermediate
                  {
                    OFFSET 0.26167887460000006 -0.013480186499999602 0.010996293000000053
                    CHANNELS 3 Yrotation Xrotation Zrotation
                    JOINT leftRingDistal
                    {
                      OFFSET 0.17667108799999987 -0.008990287899999228 0.0055541023999999065
                      CHANNELS 3 Yrotation Xrotation Zrotation
                      End Site
                      {
                        OFFSET 0.17667108799999987 -0.008990287899999228 0.0055541023999999065
                      }
                    }
                  }
                }
                JOINT leftThumbProximal
                {
                  OFFSET 0.11018806699999972 -0.09448718900500053 0.17047963138184
                  CHANNELS 3 Yrotation Xrotation Zrotation
                  JOINT leftThumbIntermediate
                  {
                    OFFSET 0.31062601459999983 -0.08126270900000132 0.15443142000000007
                    CHANNELS 3 Yrotation Xrotation Zrotation
                    JOINT leftThumbDistal
                    {
                      OFFSET 0.21627175790000086 -0.08833193599999878 0.018771167799999988
                      CHANNELS 3 Yrotation Xrotation Zrotation
                      End Site
                      {
                        OFFSET 0.21627175790000086 -0.08833193599999878 0.018771167799999988
                      }
                    }
                  }
                }
              }
            }
          }
        }
        JOINT neck
        {
          OFFSET 0 1.5463305265074576 0
          CHANNELS 3 Yrotation Xrotation Zrotation
          JOINT head
          {
            OFFSET 0 0.8456443600000344 0
            CHANNELS 3 Yrotation Xrotation Zrotation
            JOINT leftEye
            {
              OFFSET 0.30408573140000006 0.5104519199999995 0.1276382305
              CHANNELS 3 Yrotation Xrotation Zrotation
              End Site
              {
                OFFSET 0.30408573140000006 0.5104519199999995 0.1276382305
              }
            }
            JOINT rightEye
            {
              OFFSET -0.30409491089999996 0.5104519199999995 0.1276379445
              CHANNELS 3 Yrotation Xrotation Zrotation
              End Site
              {
                OFFSET -0.30409491089999996 0.5104519199999995 0.1276379445
              }
            }
            JOINT jaw
            {
              OFFSET -3.155239131000001e-7 -0.11984121820000082 0.60178107
              CHANNELS 3 Yrotation Xrotation Zrotation
              End Site
              {
                OFFSET -3.155239131000001e-7 -0.11984121820000082 0.60178107
              }
            }
          }
        }
        JOINT rightShoulder
        {
          OFFSET -0.1807303465 1.5087829790000005 0
          CHANNELS 3 Yrotation Xrotation Zrotation
          JOINT rightUpperArm
          {
            OFFSET -0.5985063796536958 0 0
            CHANNELS 3 Yrotation Xrotation Zrotation
            JOINT rightLowerArm
            {
              OFFSET -2.2993322059002854 0 0
              CHANNELS 3 Yrotation Xrotation Zrotation
              JOINT rightHand
              {
                OFFSET -2.395045314457259 0 0
                CHANNELS 3 Yrotation Xrotation Zrotation
                JOINT rightIndexProximal
                {
                  OFFSET -0.5764487688300002 0.0441371204405987 0.17361932004999997
                  CHANNELS 3 Yrotation Xrotation Zrotation
                  JOINT rightIndexIntermediate
                  {
                    OFFSET -0.29573011380000047 -0.01934826376999843 -0.007698921482999974
                    CHANNELS 3 Yrotation Xrotation Zrotation
                    JOINT rightIndexDistal
                    {
                      OFFSET -0.19008373999999884 -0.012503266380000655 -0.0026365778999999897
                      CHANNELS 3 Yrotation Xrotation Zrotation
                      End Site
                      {
                        OFFSET -0.19008373999999884 -0.012503266380000655 -0.0026365778999999897
                      }
                    }
                  }
                }
                JOINT rightMiddleProximal
                {
                  OFFSET -0.5834852037300005 0.05211639405060153 0.02307162440000001
                  CHANNELS 3 Yrotation Xrotation Zrotation
                  JOINT rightMiddleIntermediate
                  {
                    OFFSET -0.33880114510000003 -0.019952774050000954 0.0002455003561999819
                    CHANNELS 3 Yrotation Xrotation Zrotation
                    JOINT rightMiddleDistal
                    {
                      OFFSET -0.20675694929999955 -0.012273788999999091 0.00030209124000002766
                      CHANNELS 3 Yrotation Xrotation Zrotation
                      End Site
                      {
                        OFFSET -0.20675694929999955 -0.012273788999999091 0.00030209124000002766
                      }
                    }
                  }
                }
                JOINT rightLittleProximal
                {
                  OFFSET -0.5346811737299992 -0.011214256288399227 -0.24363941305000003
                  CHANNELS 3 Yrotation Xrotation Zrotation
                  JOINT rightLittleIntermediate
                  {
                    OFFSET -0.21757715980000092 -0.011771559690000988 0.01201554387
                    CHANNELS 3 Yrotation Xrotation Zrotation
                    JOINT rightLittleDistal
                    {
                      OFFSET -0.1475201849000004 -0.00822055339600003 0.006082065407000015
                      CHANNELS 3 Yrotation Xrotation Zrotation
                      End Site
                      {
                        OFFSET -0.1475201849000004 -0.00822055339600003 0.006082065407000015
                      }
                    }
                  }
                }
                JOINT rightRingProximal
                {
                  OFFSET -0.5800810755299999 0.027657985680600072 -0.12066365025000003
                  CHANNELS 3 Yrotation Xrotation Zrotation
                  JOINT rightRingIntermediate
                  {
                    OFFSET -0.26166445029999974 -0.013623118409999302 0.011164098990000045
                    CHANNELS 3 Yrotation Xrotation Zrotation
                    JOINT rightRingDistal
                    {
                      OFFSET -0.17666387530000027 -0.009072900100000503 0.005668185599999959
                      CHANNELS 3 Yrotation Xrotation Zrotation
                      End Site
                      {
                        OFFSET -0.17666387530000027 -0.009072900100000503 0.005668185599999959
                      }
                    }
                  }
                }
                JOINT rightThumbProximal
                {
                  OFFSET -0.10997596379000074 -0.09577489355940072 0.16989765924999997
                  CHANNELS 3 Yrotation Xrotation Zrotation
                  JOINT rightThumbIntermediate
                  {
                    OFFSET -0.31036620999999986 -0.08229339117999834 0.15440884469999996
                    CHANNELS 3 Yrotation Xrotation Zrotation
                    JOINT rightThumbDistal
                    {
                      OFFSET -0.21631306399999906 -0.08825326400000111 0.018656797720000014
                      CHANNELS 3 Yrotation Xrotation Zrotation
                      End Site
                      {
                        OFFSET -0.21631306399999906 -0.08825326400000111 0.018656797720000014
                      }
                    }
                  }
                }
              }
            }
          }
        }
      }
    }
  }
}
MOTION
Frames: 6
Frame Time: 0.03333333333333333
0 -9.663681126115051 0 -173.25818895870842 -72.85908520153352 173.98841426316037 -9.759340158787486 -14.256622652730695 -3.766437989965226 40.94335936712957 82.11643556631216 40.60286674872388 -6.112385130229679 30.279711084631227 -6.004029239174736 0 0 0 9.756201274314524 -14.256383047157948 3.763322156063582 -40.97034446157811 82.11319941547929 -40.630007774243886 6.107427353706946 30.2800828181964 5.999073777348423 0 0 0 -0.9549147788270086 17.832267369373696 -3.22751019050563 -4.308519618764456 15.404329265026963 -0.7151765766984208 0 0 0 -18.051638612980692 13.823023143214643 23.16036399907941 -53.38879472334889 -0.9044693366168168 -43.877944772453 -46.06761925423346 -20.99413259569836 24.46658789077109 -18.69321316068194 -34.6703775717158 -8.540972221069048 0 0 0 0 0 0 0 0 0 0 0 0 0 0 0 0 0 0 0 0 0 0 0 0 0 0 0 0 0 0 0 0 0 0 0 0 0 0 0 0 0 0 0 0 0 0.3101621699343231 14.533511886356923 -18.098901666616793 -2.188627388967372 -5.448344983217215 -0.471879732152181 0 0 0 0 0 0 0 0 0 17.995164535573494 13.833040515246985 -23.204940283163495 45.58840835967447 -14.424138666750597 68.08118339099828 40.60050599466915 -0.4849657103272681 -21.537479980186472 9.409290638927299 -70.47338776436901 26.93247418648313 0 0 0 0 0 0 0 0 0 0 0 0 0 0 0 0 0 0 0 0 0 0 0 0 0 0 0 0 0 0 0 0 0 0 0 0 0 0 0 0 0 0 0 0 0
0 -9.663681126115051 0 -173.25818895870842 -72.85908520153352 173.98841426316037 -9.759340158787486 -14.256622652730695 -3.766437989965226 40.94335936712957 82.11643556631216 40.60286674872388 -6.112384709147307 30.279707130026406 -6.004028747560733 0 0 0 9.756201274314524 -14.256383047157948 3.763322156063582 -40.97034446157811 82.11319941547929 -40.630007774243886 6.107427353706946 30.2800828181964 5.999073777348423 0 0 0 -0.9549147788270086 17.832267369373696 -3.22751019050563 -4.308519618764456 15.404329265026963 -0.7151765766984208 0 0 0 -18.051638612980692 13.823023143214643 23.16036399907941 -53.51604252928411 -0.8225196844795408 -43.991132891830624 -46.24348748778527 -20.986306685864257 24.827604360051037 -18.69382562568499 -34.91163955090289 -8.609124185620155 0 0 0 0 0 0 0 0 0 0 0 0 0 0 0 0 0 0 0 0 0 0 0 0 0 0 0 0 0 0 0 0 0 0 0 0 0 0 0 0 0 0 0 0 0 0.3055346008886871 14.578295397056062 -18.229889849389092 -2.188627388967372 -5.448344983217215 -0.471879732152181 0 0 0 0 0 0 0 0 0 17.995164535573494 13.833040515246985 -23.204940283163495 45.79336209559032 -14.28511286673138 68.0061336732693 40.74133078629401 -0.6258990207941009 -21.8774053397498 9.409288543745332 -70.47338776436901 26.93247190918637 0 0 0 0 0 0 0 0 0 0 0 0 0 0 0 0 0 0 0 0 0 0 0 0 0 0 0 0 0 0 0 0 0 0 0 0 0 0 0 0 0 0 0 0 0
0 -9.663681126115051 0 -173.25818895870842 -72.85908520153352 173.98841426316037 -9.759340158787486 -14.256622652730695 -3.766437989965226 40.94335936712957 82.11643556631216 40.60286674872388 -6.112384709147307 30.279707130026406 -6.004028747560733 0 0 0 9.756201274314524 -14.256383047157948 3.763322156063582 -40.97034446157811 82.11319941547929 -40.630007774243886 6.107427353706946 30.2800828181964 5.999073777348423 0 0 0 -0.9549147788270086 17.832267369373696 -3.22751019050563 -4.308519618764456 15.404329265026963 -0.7151765766984208 0 0 0 -18.051638612980692 13.823023143214643 23.16036399907941 -53.57974668554479 -0.7816275498668742 -44.047811040769 -46.331473749496794 -20.982003433199136 25.008247451074904 -18.694002907809566 -35.03232592440109 -8.643290739036319 0 0 0 0 0 0 0 0 0 0 0 0 0 0 0 0 0 0 0 0 0 0 0 0 0 0 0 0 0 0 0 0 0 0 0 0 0 0 0 0 0 0 0 0 0 0.3031804990792368 14.6006808599794 -18.295383323595058 -2.188627388967372 -5.448344983217215 -0.471879732152181 0 0 0 0 0 0 0 0 0 17.995164535573494 13.833040515246985 -23.204940283163495 45.89576737987996 -14.215471482418018 67.96880139491589 40.812130961082005 -0.6961277018084864 -22.047688202357808 9.409288543745332 -70.47338776436901 26.93247190918637 0 0 0 0 0 0 0 0 0 0 0 0 0 0 0 0 0 0 0 0 0 0 0 0 0 0 0 0 0 0 0 0 0 0 0 0 0 0 0 0 0 0 0 0 0
0 -9.663681126115051 0 -173.25818895870842 -72.85908520153352 173.98841426316037 -9.759340158787486 -14.256622652730695 -3.766437989965226 40.94335936712957 82.11643556631216 40.60286674872388 -6.112384709147307 30.279707130026406 -6.004028747560733 0 0 0 9.756201274314524 -14.256383047157948 3.763322156063582 -40.97034446157811 82.11319941547929 -40.630007774243886 6.107427353706946 30.2800828181964 5.999073777348423 0 0 0 -0.9549147788270086 17.832267369373696 -3.22751019050563 -4.308519618764456 15.404329265026963 -0.7151765766984208 0 0 0 -18.051638612980692 13.823023143214643 23.16036399907941 -53.643489334231504 -0.7407984109256947 -44.10453493587789 -46.41944012387505 -20.97744244987202 25.188876885684948 -18.69408939059425 -35.15301116976099 -8.677508191077182 0 0 0 0 0 0 0 0 0 0 0 0 0 0 0 0 0 0 0 0 0 0 0 0 0 0 0 0 0 0 0 0 0 0 0 0 0 0 0 0 0 0 0 0 0 0.300799678058921 14.623065071987455 -18.360886021495958 -2.188627388967372 -5.448344983217215 -0.471879732152181 0 0 0 0 0 0 0 0 0 17.995164535573494 13.833040515246985 -23.204940283163495 45.99808858363028 -14.145765248571358 67.93160979818991 40.88314354724962 -0.7661456205822972 -22.218062709020824 9.409288543745332 -70.47338776436901 26.93247190918637 0 0 0 0 0 0 0 0 0 0 0 0 0 0 0 0 0 0 0 0 0 0 0 0 0 0 0 0 0 0 0 0 0 0 0 0 0 0 0 0 0 0 0 0 0
0 -9.663681126115051 0 -173.25818895870842 -72.85908520153352 173.98841426316037 -9.759340158787486 -14.256622652730695 -3.766437989965226 40.94335936712957 82.11643556631216 40.60286674872388 -6.112384709147307 30.279707130026406 -6.004028747560733 0 0 0 9.756201274314524 -14.256383047157948 3.763322156063582 -40.97034446157811 82.11319941547929 -40.630007774243886 6.107427353706946 30.2800828181964 5.999073777348423 0 0 0 -0.9549147788270086 17.832267369373696 -3.22751019050563 -4.308519618764456 15.404329265026963 -0.7151765766984208 0 0 0 -18.051638612980692 13.823023143214643 23.16036399907941 -53.7711174500736 -0.6593006403103631 -44.21813511104702 -46.59545936669571 -20.967527271870832 25.550381291496162 -18.69400060614471 -35.39447676003788 -8.746121771863944 0 0 0 0 0 0 0 0 0 0 0 0 0 0 0 0 0 0 0 0 0 0 0 0 0 0 0 0 0 0 0 0 0 0 0 0 0 0 0 0 0 0 0 0 0 0.2959596347692671 14.667815634830399 -18.491894435284113 -2.188627388967372 -5.448346269689706 -0.47187967855098006 0 0 0 0 0 0 0 0 0 17.995164535573494 13.833040515246985 -23.204940283163495 46.20259614920355 -14.006105262332863 67.85761882608438 41.025952547386744 -0.9057004183677884 -22.559446729317695 9.409288543745332 -70.47338776436901 26.93247190918637 0 0 0 0 0 0 0 0 0 0 0 0 0 0 0 0 0 0 0 0 0 0 0 0 0 0 0 0 0 0 0 0 0 0 0 0 0 0 0 0 0 0 0 0 0
0 -9.663681126115051 0 -173.25818895870842 -72.85908520153352 173.98841426316037 -9.759340158787486 -14.256622652730695 -3.766437989965226 40.94335936712957 82.11643556631216 40.60286674872388 -6.112384709147307 30.279707130026406 -6.004028747560733 0 0 0 9.756201274314524 -14.256383047157948 3.763322156063582 -40.97034446157811 82.11319941547929 -40.630007774243886 6.107427353706946 30.2800828181964 5.999073777348423 0 0 0 -0.9549147788270086 17.832267369373696 -3.22751019050563 -4.308519618764456 15.404329265026963 -0.7151765766984208 0 0 0 -18.051638612980692 13.823023143214643 23.16036399907941 -53.835020347119 -0.6186413566824503 -44.27501895220692 -46.68350402177249 -20.96218044400582 25.73125778927235 -18.69382391259499 -35.51526266032705 -8.780520726673213 0 0 0 0 0 0 0 0 0 0 0 0 0 0 0 0 0 0 0 0 0 0 0 0 0 0 0 0 0 0 0 0 0 0 0 0 0 0 0 0 0 0 0 0 0 0.2934995396555554 14.690181988845127 -18.557400373398828 -2.188627388967372 -5.448345840865541 -0.471879732152181 0 0 0 0 0 0 0 0 0 17.995164535573494 13.833040515246985 -23.204940283163495 46.30477155421642 -13.936152333470087 67.82082218967042 41.097745010038714 -0.9752311897812931 -22.730454441367044 9.409288543745332 -70.47338776436901 26.93247190918637 0 0 0 0 0 0 0 0 0 0 0 0 0 0 0 0 0 0 0 0 0 0 0 0 0 0 0 0 0 0 0 0 0 0 0 0 0 0 0 0 0 0 0 0 0
